<?xml version="1.0" standalone="no"?>
<!DOCTYPE svg PUBLIC "-//W3C//DTD SVG 20010904//EN"
 "http://www.w3.org/TR/2001/REC-SVG-20010904/DTD/svg10.dtd">
<svg version="1.0" xmlns="http://www.w3.org/2000/svg"
 width="700.000000pt" height="700.000000pt" viewBox="0 0 700.000000 700.000000"
 preserveAspectRatio="xMidYMid meet">
<metadata>
Created by potrace 1.14, written by Peter Selinger 2001-2017
</metadata>
<g transform="translate(0.000000,700.000000) scale(0.100000,-0.100000)"
fill="#000000" stroke="none">
<path d="M3637 6015 c-1 -2 -44 -6 -95 -9 -51 -4 -103 -9 -114 -11 -12 -3 -44
-7 -72 -10 -28 -3 -59 -8 -68 -11 -9 -3 -25 -6 -35 -8 -196 -39 -529 -168
-659 -255 -25 -17 -47 -31 -50 -31 -13 0 -168 -111 -242 -173 -201 -167 -451
-458 -467 -543 -8 -44 -26 -43 -78 1 -73 63 -85 47 -57 -72 12 -50 18 -99 14
-116 -10 -46 -55 -127 -71 -127 -9 0 -13 -6 -9 -15 3 -9 -1 -16 -9 -16 -8 -1
-19 -3 -25 -4 -5 -1 -17 -3 -26 -4 -12 -1 -14 -4 -6 -13 8 -10 -7 -13 -69 -14
-45 0 -84 -5 -90 -11 -9 -9 -3 -12 22 -11 36 0 105 -9 127 -17 7 -3 10 -10 6
-17 -5 -8 0 -9 14 -6 29 8 29 -13 0 -46 -22 -24 -25 -25 -73 -14 -27 6 -52 13
-55 17 -3 3 -16 6 -30 7 -37 1 -87 11 -102 20 -7 4 -42 8 -78 9 -61 2 -63 1
-35 -11 17 -7 47 -13 67 -14 20 0 40 -4 43 -10 3 -5 15 -10 25 -10 10 0 39
-18 64 -39 43 -38 45 -40 24 -47 -22 -7 -70 -38 -96 -61 -7 -7 -17 -13 -21
-13 -4 0 -24 -28 -44 -62 -21 -35 -55 -83 -77 -107 -22 -24 -37 -47 -34 -50 9
-9 174 170 174 188 0 6 16 22 36 37 27 21 38 25 44 15 5 -9 10 -10 14 -2 9 14
54 10 67 -6 13 -15 3 -33 -17 -33 -8 0 -14 -4 -14 -9 0 -11 -70 -118 -96 -146
-69 -75 -50 -73 23 3 35 35 58 52 61 44 4 -14 15 -24 46 -46 23 -16 24 -77 2
-130 -16 -38 -80 -106 -100 -106 -8 0 -19 -7 -27 -16 -7 -8 -29 -24 -50 -34
-29 -15 -37 -25 -36 -47 0 -15 -6 -29 -12 -31 -6 -2 -11 -9 -11 -14 0 -6 3 -9
6 -5 3 3 22 0 42 -7 31 -11 37 -18 38 -44 2 -36 37 -71 71 -72 27 0 37 -15 25
-36 -11 -19 25 -104 45 -104 11 0 23 -31 38 -105 l6 -30 -23 26 c-13 14 -34
29 -48 32 -24 6 -24 5 5 -19 17 -13 29 -31 27 -40 -2 -9 4 -21 14 -28 14 -11
15 -15 3 -34 -8 -12 -19 -22 -26 -22 -28 0 -119 43 -138 65 -11 12 -33 26 -50
29 l-30 7 32 -26 c36 -28 42 -45 18 -45 -8 0 -15 6 -15 13 0 8 -3 8 -8 2 -4
-6 -17 -10 -30 -9 -12 1 -20 -1 -17 -4 3 -3 -9 -14 -26 -24 -30 -18 -31 -18
-59 2 -38 27 -48 25 -21 -4 14 -15 20 -30 16 -37 -6 -9 -12 -7 -22 7 -11 15
-15 16 -22 5 -6 -9 -11 -10 -15 -2 -4 6 -12 11 -17 11 -6 0 -8 -4 -5 -9 7 -11
-64 -57 -79 -53 -5 2 -5 -2 1 -8 8 -8 18 -9 30 -2 20 10 30 10 114 -8 91 -19
105 -25 103 -44 -1 -15 5 -17 40 -12 122 17 119 18 180 -30 31 -25 57 -50 57
-55 0 -6 -4 -8 -9 -4 -5 3 -12 1 -16 -5 -3 -5 1 -10 9 -10 21 0 31 -20 16 -33
-10 -9 -11 -9 -6 1 10 16 -22 28 -37 13 -8 -8 -6 -11 7 -11 16 0 15 -3 -5 -21
-23 -19 -23 -20 -2 -10 31 15 53 14 53 -4 0 -8 7 -15 16 -15 10 0 14 6 11 14
-3 8 1 17 9 20 22 8 17 25 -6 19 -11 -3 -20 0 -20 6 0 6 6 11 13 11 6 0 21 13
32 30 17 25 21 27 27 12 11 -29 9 -39 -17 -63 -30 -29 -30 -30 -3 -90 19 -40
28 -49 48 -49 40 0 70 -11 70 -26 0 -8 4 -14 9 -14 5 0 8 -21 7 -46 -1 -25 2
-48 6 -50 4 -3 8 -12 8 -21 0 -19 40 -58 60 -58 8 0 16 -10 18 -23 2 -12 7
-20 12 -17 4 3 11 -10 14 -29 5 -25 14 -37 36 -46 39 -16 66 -56 50 -75 -21
-25 9 -68 57 -83 30 -10 63 -35 115 -89 81 -84 284 -257 367 -312 56 -38 146
-91 196 -117 47 -24 71 -39 90 -54 10 -8 20 -14 22 -12 5 4 55 -10 80 -23 13
-7 33 -27 46 -46 12 -19 38 -42 57 -51 19 -9 41 -22 47 -28 15 -12 41 -2 63
25 17 21 61 14 136 -22 52 -25 54 -26 38 -44 -17 -18 -16 -19 13 -13 24 5 33
2 41 -13 12 -21 6 -35 -22 -50 -19 -10 -19 -11 1 -17 11 -4 31 -20 44 -37 38
-50 70 -82 76 -76 7 8 37 -22 52 -51 10 -19 18 -22 43 -17 36 8 118 -3 118
-16 0 -5 -8 -9 -17 -9 -13 0 -14 -3 -5 -12 9 -9 9 -15 -2 -27 -7 -9 -16 -35
-20 -58 -5 -36 -3 -46 14 -60 11 -10 20 -22 20 -27 0 -5 8 -15 18 -22 16 -13
16 -13 -1 -14 -14 0 -16 -5 -11 -25 4 -17 1 -27 -9 -31 -8 -3 -14 -15 -14 -27
1 -12 -2 -32 -7 -45 -6 -17 -1 -28 21 -50 25 -25 157 -88 203 -97 10 -2 31
-10 47 -18 45 -22 115 -21 146 3 31 25 43 56 28 74 -9 10 -3 19 24 37 25 17
35 31 35 51 0 15 7 31 16 36 9 5 15 11 13 13 -5 9 13 49 22 49 5 0 9 7 9 16 0
25 53 103 71 104 8 0 20 -5 27 -12 7 -7 12 -8 12 -2 0 5 -5 15 -11 21 -6 6
-11 30 -11 52 1 30 -3 41 -14 41 -8 0 -18 -8 -21 -18 -4 -9 -11 -20 -17 -24
-6 -4 -5 -13 4 -23 12 -15 12 -19 -5 -32 -11 -8 -19 -18 -18 -23 1 -4 -7 -16
-17 -25 -11 -10 -20 -24 -20 -32 0 -23 -120 -137 -132 -125 -7 7 -20 5 -40 -8
-44 -26 -82 -14 -85 28 -3 30 -1 32 33 32 45 0 89 40 80 74 -4 17 1 28 22 43
15 11 28 29 29 40 1 11 15 43 32 72 17 28 31 55 31 58 0 3 12 25 27 48 26 42
27 43 52 27 26 -16 26 -16 8 4 -13 15 -16 31 -12 57 5 29 3 37 -9 37 -9 0 -16
-1 -16 -2 -1 -2 -3 -20 -6 -41 -3 -22 -13 -47 -22 -57 -33 -36 -42 -49 -42
-60 0 -6 -25 -36 -55 -66 -37 -38 -60 -54 -71 -50 -8 3 -25 -1 -37 -9 -24 -17
-57 -20 -57 -6 0 5 6 12 13 14 9 4 9 8 -2 15 -8 6 -12 19 -9 30 4 14 2 19 -7
16 -15 -6 -27 44 -13 52 5 3 7 12 4 19 -6 17 23 29 38 16 7 -6 17 -6 26 -1 8
6 26 10 39 10 13 0 37 12 54 26 22 18 37 24 55 19 22 -5 24 -3 18 18 -8 33 2
39 33 19 20 -13 24 -13 15 -2 -19 26 6 57 41 53 16 -3 32 -9 36 -14 3 -6 9 -1
12 12 7 28 -2 46 -14 28 -7 -11 -9 -11 -9 2 0 23 38 32 43 10 3 -11 5 -10 6 5
2 34 -32 36 -58 3 -16 -20 -32 -29 -53 -29 -19 0 -27 -4 -22 -12 4 -7 3 -8 -5
-4 -8 6 -9 12 -2 20 7 9 7 16 -1 24 -8 8 -5 9 11 5 19 -5 30 10 14 20 -5 2 -2
2 5 0 7 -1 22 2 33 7 14 8 19 7 19 -2 0 -8 3 -9 8 -3 10 14 76 50 68 37 -3 -6
17 -2 46 9 62 22 61 22 52 7 -5 -7 -3 -8 5 -4 7 5 10 14 7 21 -3 10 11 17 46
24 68 15 118 40 118 59 0 8 3 12 7 9 3 -4 12 -2 20 5 11 9 15 7 19 -9 5 -19 7
-19 57 5 58 27 99 60 91 73 -3 5 0 9 6 9 6 0 8 5 4 12 -5 8 -2 9 9 5 10 -3 17
-2 17 3 0 6 10 10 23 11 12 0 16 3 9 6 -9 4 -10 8 -2 18 14 17 -14 47 -35 39
-18 -7 -20 17 -3 34 18 18 28 15 28 -8 0 -13 5 -18 15 -14 11 5 15 -1 16 -22
1 -16 1 -32 0 -36 0 -5 4 -8 10 -8 7 0 8 12 4 32 -6 31 -5 32 10 14 8 -11 15
-14 15 -8 0 7 7 12 15 12 8 0 15 6 15 13 0 16 181 132 200 128 8 -1 12 0 8 5
-5 4 1 13 12 21 26 18 26 40 0 48 -22 7 -80 73 -80 92 0 15 4 16 28 4 9 -5 37
-18 61 -30 l45 -22 -50 53 c-54 58 -74 69 -74 41 0 -13 -5 -11 -20 12 -25 37
-26 57 -3 48 18 -7 15 -2 -28 46 -15 17 -14 19 17 30 39 14 55 8 99 -39 40
-42 76 -60 122 -60 21 0 48 -7 60 -15 21 -15 24 -13 67 31 25 25 60 66 78 90
37 49 55 59 73 44 9 -8 15 -7 18 2 4 10 6 10 6 1 1 -18 40 -15 81 5 25 13 34
23 32 37 -3 17 -2 17 14 4 13 -11 18 -11 21 -1 3 6 12 12 20 12 12 0 14 7 9
33 -4 23 -3 28 4 15 12 -19 54 -13 46 7 -3 8 2 11 13 8 12 -3 20 2 23 15 7 25
-7 51 -15 31 -4 -10 -6 -10 -6 2 -1 14 -7 16 -36 9 -25 -6 -37 -4 -43 4 -10
18 -46 25 -66 14 -21 -12 -21 1 0 31 38 54 94 165 94 187 0 18 -7 24 -42 30
-47 8 -77 6 -93 -6 -20 -15 -65 -18 -65 -4 0 18 11 23 67 29 69 8 77 10 90 18
6 4 23 3 38 -3 31 -12 46 -13 43 -2 -1 4 7 25 17 47 10 22 24 54 31 70 8 17
25 69 39 117 23 77 35 128 65 263 5 22 12 80 16 130 7 86 6 89 -11 72 -20 -21
-47 -19 -50 3 -1 8 -5 36 -8 61 -3 26 -10 64 -16 85 -16 62 -19 100 -11 114 4
7 2 26 -5 43 -15 36 -9 64 15 70 13 3 23 -6 38 -37 11 -22 23 -51 26 -63 9
-28 35 -51 37 -32 1 8 1 16 1 19 0 3 -3 50 -7 105 -4 55 -9 107 -10 117 -2 9
-7 38 -10 65 -4 26 -22 111 -41 187 -91 374 -283 713 -559 992 -158 160 -222
213 -388 322 -146 95 -181 112 -219 105 -21 -4 -37 4 -75 35 -26 22 -61 46
-78 55 -59 29 -287 98 -375 113 -14 2 -36 7 -50 10 -14 3 -43 8 -65 10 -22 3
-46 7 -53 9 -21 7 -348 25 -355 20z m497 -114 c9 -7 27 -33 40 -58 l25 -44
-27 5 c-15 4 -38 8 -51 11 -42 8 -78 56 -65 88 6 17 57 15 78 -2z m-909 -31
c3 -5 1 -10 -4 -10 -6 0 -11 5 -11 10 0 6 2 10 4 10 3 0 8 -4 11 -10z m655
-10 c0 -5 -2 -10 -4 -10 -3 0 -8 5 -11 10 -3 6 -1 10 4 10 6 0 11 -4 11 -10z
m594 -41 c8 -16 10 -29 5 -29 -5 0 -9 -8 -9 -17 0 -16 2 -16 11 -3 8 12 9 9 5
-12 -3 -15 -2 -30 4 -33 5 -3 10 1 10 9 0 26 14 18 40 -23 13 -22 28 -37 34
-34 5 4 7 -1 3 -11 -4 -10 -2 -16 6 -15 23 3 37 -1 37 -11 0 -5 -13 -10 -29
-10 -32 0 -65 34 -54 54 4 6 0 5 -9 -2 -14 -11 -19 -8 -37 17 -12 16 -21 32
-21 36 0 3 -13 20 -30 38 -16 17 -26 34 -23 37 3 3 8 -1 10 -7 5 -15 33 -18
33 -4 0 5 -11 12 -25 15 -26 7 -34 31 -12 39 20 7 36 -3 51 -34z m-127 -151
c-3 -8 -6 -5 -6 6 -1 11 2 17 5 13 3 -3 4 -12 1 -19z m49 -44 c3 -13 11 -22
18 -21 6 1 10 -6 10 -15 -1 -10 3 -16 9 -15 14 3 58 -74 52 -91 -3 -7 -1 -11
4 -8 5 3 16 -13 25 -37 12 -31 29 -51 65 -74 39 -25 48 -37 44 -52 -8 -31 -32
-48 -44 -30 -5 8 -9 10 -9 4 0 -7 -3 -7 -8 0 -4 6 -16 15 -26 21 -23 12 -37
41 -15 30 8 -4 5 0 -5 8 -11 9 -23 16 -28 16 -4 0 -13 20 -20 44 -6 25 -15 43
-18 41 -3 -2 -4 13 -2 33 2 26 0 33 -6 23 -7 -10 -12 -5 -17 20 -10 44 -44
109 -61 116 -8 3 -12 9 -9 14 9 14 35 -2 41 -27z m-127 -61 c69 -62 134 -153
153 -214 14 -47 32 -64 136 -128 147 -90 304 -231 437 -395 30 -37 65 -76 78
-87 12 -10 19 -18 15 -19 -4 0 26 -66 67 -147 72 -144 125 -285 139 -369 6
-32 21 -56 67 -105 84 -90 93 -109 79 -171 -11 -53 -48 -128 -62 -128 -4 0
-11 0 -15 1 -13 2 -21 -29 -28 -111 -4 -47 -8 -92 -10 -100 -1 -8 -6 -35 -10
-60 -20 -132 -72 -295 -136 -427 -27 -56 -49 -106 -49 -112 0 -6 10 -11 23
-11 12 0 50 0 84 1 52 0 62 -3 57 -15 -3 -9 -16 -16 -27 -15 -25 0 -107 -9
-152 -17 -23 -4 -42 -21 -80 -73 -56 -78 -236 -289 -247 -290 -3 -1 -44 -29
-90 -64 -46 -35 -112 -80 -146 -101 -67 -42 -68 -45 -53 -125 9 -47 -2 -100
-22 -102 -24 -3 -52 3 -65 13 -7 6 -35 8 -66 5 -38 -4 -62 -1 -82 10 -27 14
-135 20 -153 9 -4 -3 -23 -8 -42 -11 -19 -3 -52 -10 -74 -16 -102 -24 -431
-33 -540 -14 -179 31 -436 110 -510 157 -22 14 -54 32 -72 41 -197 102 -488
385 -599 582 -15 28 -49 93 -76 145 -26 52 -53 101 -58 108 -6 6 -10 18 -9 25
1 6 -3 26 -10 42 -17 40 -60 218 -69 280 -4 28 -7 158 -6 290 0 258 4 286 70
488 30 93 121 289 163 353 17 25 31 47 31 50 0 13 131 167 223 262 82 85 97
105 87 117 -10 12 -10 15 1 15 8 0 21 -4 28 -9 11 -7 28 1 60 28 50 42 110 78
243 146 111 57 197 89 318 120 167 42 223 48 400 49 132 0 283 -9 299 -18 3
-2 26 -7 51 -10 25 -3 68 -12 97 -20 l52 -14 -11 27 c-6 14 -17 46 -24 69
l-14 44 43 -7 c23 -4 48 -12 55 -17 16 -13 16 -12 -8 50 -11 28 -17 52 -12 52
4 0 36 -26 71 -57z m-889 -23 c0 -5 -2 -10 -4 -10 -3 0 -8 5 -11 10 -3 6 -1
10 4 10 6 0 11 -4 11 -10z m2296 -1189 c8 -36 14 -75 13 -86 0 -17 -11 21 -54
185 -6 23 -5 22 11 -4 9 -16 23 -59 30 -95z m-4123 34 c8 -20 -1 -24 -75 -34
-56 -8 -91 -5 -63 5 6 2 24 13 40 23 36 24 91 27 98 6z m4277 -16 c0 -5 -7 -9
-15 -9 -9 0 -12 6 -9 15 6 15 24 11 24 -6z m-186 -30 c-3 -5 -10 -7 -15 -3 -5
3 -7 10 -3 15 3 5 10 7 15 3 5 -3 7 -10 3 -15z m-4122 -69 c-5 -34 -19 -47
-33 -33 -6 6 -2 20 11 36 12 15 23 27 24 27 1 0 1 -14 -2 -30z m4018 -204 c0
-11 -5 -28 -10 -36 -8 -12 -10 -10 -10 10 0 14 -3 36 -7 50 -6 22 -5 24 10 11
9 -7 17 -23 17 -35z m-20 -110 c0 -12 -5 -7 -19 24 -11 24 -11 24 3 6 9 -11
16 -24 16 -30z m-56 -489 c-3 -9 -11 -17 -16 -17 -6 0 -7 7 -4 16 3 9 6 21 6
27 0 8 3 8 10 1 6 -6 8 -18 4 -27z m413 -19 c-13 -8 -39 10 -31 23 3 5 14 3
24 -3 13 -9 16 -14 7 -20z m-3784 -180 c15 -11 27 -29 27 -40 0 -20 -1 -20
-32 4 -17 13 -35 34 -39 47 -9 24 -6 23 44 -11z m-782 -24 c67 -15 85 -34 31
-34 -38 0 -148 36 -131 43 22 8 25 8 100 -9z m4296 -210 c-3 -4 0 -16 8 -28
19 -26 19 -36 0 -36 -8 0 -17 11 -21 24 -6 24 1 46 13 46 4 0 3 -3 0 -6z
m-217 -160 c0 -8 -4 -12 -10 -9 -5 3 -10 10 -10 16 0 5 5 9 10 9 6 0 10 -7 10
-16z m-240 -14 c0 -4 -6 -13 -14 -19 -17 -14 -29 0 -20 22 5 15 34 13 34 -3z
m406 -97 c-4 -4 -11 -1 -16 7 -16 25 -11 35 7 17 9 -9 13 -20 9 -24z m-18
-105 c-6 -18 -28 -21 -28 -4 0 9 7 16 16 16 9 0 14 -5 12 -12z m82 -84 c0 -2
-7 -4 -15 -4 -8 0 -15 4 -15 10 0 5 7 7 15 4 8 -4 15 -8 15 -10z m-63 -26 c-3
-8 -6 -5 -6 6 -1 11 2 17 5 13 3 -3 4 -12 1 -19z m-627 -56 c-1 -13 -27 -42
-39 -42 -6 0 -11 -4 -11 -10 0 -5 -4 -10 -10 -10 -5 0 -10 11 -10 25 0 14 -6
25 -12 25 -7 0 0 9 16 19 22 15 34 17 48 10 10 -5 18 -13 18 -17z m436 -27
c32 -21 30 -28 -10 -50 -26 -14 -47 -17 -95 -12 -35 3 -65 8 -68 10 -3 3 8 22
23 42 27 35 30 37 77 32 26 -3 59 -13 73 -22z m-401 -295 c3 -5 1 -10 -4 -10
-6 0 -11 5 -11 10 0 6 2 10 4 10 3 0 8 -4 11 -10z m-575 -21 c0 -5 -4 -9 -10
-9 -5 0 -10 7 -10 16 0 8 5 12 10 9 6 -3 10 -10 10 -16z m-45 -89 c3 -5 2 -10
-4 -10 -5 0 -13 5 -16 10 -3 6 -2 10 4 10 5 0 13 -4 16 -10z m-398 -36 c-3 -3
-12 -4 -19 -1 -8 3 -5 6 6 6 11 1 17 -2 13 -5z m454 -255 c30 -21 41 -56 15
-46 -11 4 -13 1 -9 -10 5 -13 3 -14 -15 -4 -12 7 -22 8 -23 4 -1 -16 -18 33
-18 55 -1 27 13 28 50 1z m-741 -325 c25 -25 62 -55 82 -66 20 -12 35 -25 32
-29 -2 -4 3 -12 13 -17 24 -14 27 -45 2 -37 -10 4 -19 3 -20 -2 0 -4 -3 -17
-5 -28 -3 -11 -5 -30 -6 -42 0 -13 -4 -23 -9 -23 -20 0 -59 24 -59 37 0 7 -4
13 -8 13 -5 0 -20 9 -33 21 -34 29 -36 71 -5 104 20 22 23 31 15 47 -6 10 -17
22 -25 25 -8 3 -14 11 -14 18 0 7 -6 16 -12 18 -7 3 -8 6 -3 6 6 0 30 -20 55
-45z m82 -392 c39 -14 65 -29 61 -35 -3 -6 -1 -7 6 -3 16 10 40 -11 36 -32 -5
-32 -134 -11 -135 22 0 6 -16 22 -35 36 -36 26 -49 58 -17 45 9 -5 47 -19 84
-33z"/>
<path d="M4430 5840 c0 -5 5 -10 11 -10 5 0 7 5 4 10 -3 6 -8 10 -11 10 -2 0
-4 -4 -4 -10z"/>
<path d="M4440 5540 c0 -11 4 -20 9 -20 5 0 7 9 4 20 -3 11 -7 20 -9 20 -2 0
-4 -9 -4 -20z"/>
<path d="M4460 5460 c0 -5 5 -10 11 -10 5 0 7 5 4 10 -3 6 -8 10 -11 10 -2 0
-4 -4 -4 -10z"/>
<path d="M3589 5056 c-2 -2 -33 -7 -69 -10 -87 -9 -217 -35 -257 -52 -18 -7
-33 -11 -33 -8 0 2 -13 -2 -30 -11 -16 -9 -30 -13 -30 -10 0 7 -153 -70 -215
-108 -255 -157 -473 -423 -569 -695 -58 -164 -69 -225 -70 -417 -1 -99 1 -198
5 -220 4 -22 10 -53 13 -70 24 -133 66 -240 165 -420 42 -77 174 -224 267
-297 57 -45 236 -147 301 -172 76 -28 236 -72 298 -81 23 -3 52 -8 65 -11 54
-12 357 -11 435 1 44 7 97 16 117 19 137 21 432 177 513 269 70 80 103 162 80
194 -14 19 -15 18 -87 -12 -17 -7 -17 -5 -3 29 12 27 13 42 5 56 -19 36 -54
24 -140 -50 -134 -115 -263 -184 -405 -216 -16 -4 -100 -8 -185 -10 -129 -3
-167 -1 -220 15 -193 55 -321 168 -419 370 -16 33 -28 61 -26 61 2 0 -5 25
-16 55 -23 67 -55 229 -67 345 -13 124 -6 370 13 484 23 132 77 295 127 380
99 169 288 304 479 346 74 15 261 12 289 -5 4 -2 21 -7 37 -10 110 -19 287
-141 385 -265 38 -48 98 -160 117 -222 12 -37 52 -88 70 -88 5 0 15 16 21 35
l12 36 20 -26 c25 -33 46 -32 60 3 12 28 22 660 11 714 -10 50 -51 45 -88 -11
-11 -17 -28 -31 -37 -31 -9 0 -28 -14 -41 -32 -32 -40 -53 -39 -187 7 -317
111 -391 128 -616 140 -50 3 -93 3 -95 1z m1046 -483 c3 -13 2 -23 -3 -23 -15
0 -30 22 -37 55 l-7 30 20 -20 c11 -11 23 -30 27 -42z"/>
<path d="M3670 1370 c-12 -8 -11 -10 8 -10 12 0 22 5 22 10 0 13 -11 13 -30 0z"/>
<path d="M3740 1361 c13 -10 13 -12 0 -22 -13 -9 -13 -10 0 -6 8 2 15 10 15
17 0 7 -7 15 -15 17 -13 4 -13 3 0 -6z"/>
<path d="M1140 4520 c0 -5 5 -10 11 -10 5 0 7 5 4 10 -3 6 -8 10 -11 10 -2 0
-4 -4 -4 -10z"/>
<path d="M986 4021 c-10 -11 -16 -26 -13 -33 4 -10 6 -10 6 1 1 8 9 20 18 27
10 7 15 15 12 18 -3 3 -14 -3 -23 -13z"/>
<path d="M1178 4023 c-27 -32 -31 -49 -4 -19 14 16 26 31 26 33 0 7 -8 2 -22
-14z"/>
<path d="M1291 3705 c12 -28 45 -75 52 -75 10 0 -23 57 -42 73 -8 7 -12 8 -10
2z"/>
<path d="M1120 3682 c0 -16 50 -95 56 -89 3 3 -8 27 -25 53 -17 27 -31 43 -31
36z"/>
<path d="M710 3666 c0 -2 7 -7 16 -10 8 -3 12 -2 9 4 -6 10 -25 14 -25 6z"/>
<path d="M540 3635 c0 -15 29 -35 50 -35 13 0 -30 50 -42 50 -5 0 -8 -7 -8
-15z"/>
<path d="M790 3640 c0 -5 7 -10 16 -10 8 0 12 5 9 10 -3 6 -10 10 -16 10 -5 0
-9 -4 -9 -10z"/>
<path d="M497 3629 c7 -7 15 -10 18 -7 3 3 -2 9 -12 12 -14 6 -15 5 -6 -5z"/>
<path d="M868 3623 c7 -3 16 -2 19 1 4 3 -2 6 -13 5 -11 0 -14 -3 -6 -6z"/>
<path d="M900 3620 c0 -4 11 -10 25 -12 13 -3 22 -2 20 2 -7 11 -45 20 -45 10z"/>
<path d="M311 3600 c9 -13 22 -26 30 -29 11 -3 10 1 -2 19 -9 13 -22 26 -30
29 -11 3 -10 -1 2 -19z"/>
<path d="M984 3602 c4 -3 12 -7 19 -8 7 -1 45 -7 86 -13 40 -6 75 -10 77 -9 2
2 -1 10 -5 17 -6 9 -37 14 -96 16 -47 2 -84 1 -81 -3z"/>
<path d="M660 3591 c8 -5 35 -11 60 -14 l45 -5 -40 13 c-47 16 -89 20 -65 6z"/>
<path d="M910 3572 c0 -4 -30 -5 -67 -4 -73 4 -82 -4 -17 -13 21 -3 63 -10 93
-15 30 -6 56 -10 58 -10 2 0 3 6 3 14 0 8 -10 18 -22 22 -34 11 -48 13 -48 6z"/>
<path d="M1186 3565 c-3 -8 -1 -15 4 -15 6 0 10 7 10 15 0 8 -2 15 -4 15 -2 0
-6 -7 -10 -15z"/>
<path d="M1399 3550 c12 -19 33 -57 47 -83 14 -27 27 -47 30 -45 5 6 -51 107
-77 138 -21 25 -21 25 0 -10z"/>
<path d="M685 3520 c10 -11 20 -20 23 -20 3 0 -3 9 -13 20 -10 11 -20 20 -23
20 -3 0 3 -9 13 -20z"/>
<path d="M1220 3537 c0 -12 92 -168 97 -163 3 2 -7 25 -22 51 -15 25 -25 48
-23 51 3 2 18 0 33 -6 15 -6 30 -8 33 -6 2 3 -16 11 -40 17 -30 8 -51 21 -61
38 -9 14 -17 23 -17 18z"/>
<path d="M995 3520 c3 -5 8 -10 11 -10 2 0 4 5 4 10 0 6 -5 10 -11 10 -5 0 -7
-4 -4 -10z"/>
<path d="M1104 3435 c11 -8 26 -15 33 -15 22 0 14 8 -19 19 -30 10 -31 9 -14
-4z"/>
<path d="M1103 3383 c9 -2 25 -2 35 0 9 3 1 5 -18 5 -19 0 -27 -2 -17 -5z"/>
<path d="M1220 3379 c0 -5 5 -7 10 -4 6 3 10 8 10 11 0 2 -4 4 -10 4 -5 0 -10
-5 -10 -11z"/>
<path d="M906 3332 c-3 -5 8 -6 25 -4 16 2 29 6 29 8 0 8 -49 4 -54 -4z"/>
<path d="M1210 3320 c0 -5 5 -10 11 -10 5 0 7 5 4 10 -3 6 -8 10 -11 10 -2 0
-4 -4 -4 -10z"/>
<path d="M1025 3260 c4 -6 11 -8 16 -5 14 9 11 15 -7 15 -8 0 -12 -5 -9 -10z"/>
<path d="M1425 2950 c-16 -17 -16 -20 -3 -15 9 4 19 13 22 21 7 19 2 18 -19
-6z"/>
<path d="M1398 2904 c-4 -3 -21 -8 -40 -11 -18 -3 -40 -9 -48 -14 -14 -9 2 -8
75 6 11 2 26 4 33 4 16 1 16 21 -1 21 -8 0 -16 -3 -19 -6z"/>
<path d="M1499 2869 c-23 -19 -23 -20 -2 -10 12 6 25 16 28 21 10 16 -1 12
-26 -11z"/>
<path d="M1260 2865 c-7 -8 -8 -15 -2 -15 5 0 15 7 22 15 7 8 8 15 2 15 -5 0
-15 -7 -22 -15z"/>
<path d="M1547 2825 c-29 -26 -44 -34 -59 -29 -18 5 -19 4 -7 -9 12 -13 17
-13 39 3 26 19 77 70 69 70 -2 0 -21 -16 -42 -35z"/>
<path d="M1291 2798 c-28 -23 -51 -48 -51 -55 0 -10 7 -8 22 6 11 11 25 18 30
15 4 -3 8 1 8 9 0 7 11 20 25 27 14 7 25 19 25 27 0 18 -1 18 -59 -29z"/>
<path d="M1467 2833 c-13 -12 -7 -25 6 -14 8 6 18 7 22 3 5 -4 5 -1 1 6 -8 13
-19 16 -29 5z"/>
<path d="M1690 2800 c0 -5 5 -10 11 -10 5 0 7 5 4 10 -3 6 -8 10 -11 10 -2 0
-4 -4 -4 -10z"/>
<path d="M1460 2765 c0 -8 4 -15 10 -15 5 0 7 7 4 15 -4 8 -8 15 -10 15 -2 0
-4 -7 -4 -15z"/>
<path d="M1130 2708 c-19 -18 -39 -33 -43 -33 -8 0 -27 -25 -27 -36 0 -15 69
28 74 45 3 13 11 17 25 13 13 -3 27 4 43 21 l23 26 -27 -17 c-23 -14 -26 -15
-22 -2 10 24 -9 17 -46 -17z"/>
<path d="M1700 2700 c-13 -8 -12 -10 3 -10 9 0 17 5 17 10 0 12 -1 12 -20 0z"/>
<path d="M999 2611 c-31 -25 -21 -35 11 -11 14 10 22 21 19 25 -3 3 -17 -3
-30 -14z"/>
<path d="M5772 2510 c-12 -5 -25 -16 -28 -24 -3 -8 -11 -13 -17 -10 -16 5 -26
-3 -70 -57 -20 -25 -37 -56 -37 -67 0 -23 43 -69 48 -53 2 7 9 5 17 -3 12 -12
22 -11 70 6 51 19 54 23 48 47 -6 26 -6 26 15 7 20 -17 22 -17 28 -2 3 9 13
16 21 16 11 0 13 8 9 33 -5 27 -5 28 4 9 8 -20 12 -21 30 -10 11 7 20 16 20
21 0 4 4 6 9 2 15 -9 33 33 25 58 -7 21 -7 21 -15 2 -5 -14 -8 -16 -8 -4 -1
13 -10 15 -48 12 -35 -3 -44 -1 -33 6 8 6 13 11 10 11 -3 1 -21 3 -40 5 -19 2
-45 0 -58 -5z m18 -50 c13 -8 13 -10 -2 -10 -9 0 -20 5 -23 10 -8 13 5 13 25
0z m-53 -32 c-3 -8 -6 -5 -6 6 -1 11 2 17 5 13 3 -3 4 -12 1 -19z m88 -28 c3
-6 -1 -7 -9 -4 -18 7 -21 14 -7 14 6 0 13 -4 16 -10z"/>
<path d="M910 2379 c0 -5 5 -7 10 -4 6 3 10 8 10 11 0 2 -4 4 -10 4 -5 0 -10
-5 -10 -11z"/>
<path d="M426 2134 c-24 -23 -19 -27 9 -8 14 9 25 18 25 20 0 10 -20 3 -34
-12z"/>
<path d="M184 1986 c-10 -8 -17 -17 -14 -19 3 -3 14 1 24 9 11 7 17 16 15 19
-3 3 -14 -2 -25 -9z"/>
<path d="M2317 1944 c6 -16 19 -18 27 -5 3 5 -3 11 -13 14 -14 3 -18 1 -14 -9z"/>
<path d="M5055 1900 c3 -5 8 -10 11 -10 2 0 4 5 4 10 0 6 -5 10 -11 10 -5 0
-7 -4 -4 -10z"/>
<path d="M5195 1870 c-3 -6 1 -7 9 -4 18 7 21 14 7 14 -6 0 -13 -4 -16 -10z"/>
<path d="M2220 1792 c0 -20 31 -62 45 -62 7 0 16 -6 18 -12 3 -7 6 1 6 18 1
27 -4 33 -26 39 -15 3 -31 12 -35 18 -6 9 -8 9 -8 -1z"/>
<path d="M4541 1674 c0 -11 3 -14 6 -6 3 7 2 16 -1 19 -3 4 -6 -2 -5 -13z"/>
<path d="M4600 1664 c0 -9 5 -14 12 -12 18 6 21 28 4 28 -9 0 -16 -7 -16 -16z"/>
<path d="M4660 1620 c46 -38 62 -38 25 0 -16 17 -36 30 -44 30 -10 0 -3 -11
19 -30z"/>
<path d="M2880 1620 c0 -11 7 -20 16 -20 8 0 12 -4 9 -10 -3 -5 -17 -10 -31
-10 -20 0 -24 -5 -24 -29 0 -37 37 -76 96 -101 55 -24 74 -20 95 17 19 34 15
52 -14 76 -126 101 -147 112 -147 77z"/>
<path d="M4530 1630 c0 -5 5 -10 11 -10 5 0 7 5 4 10 -3 6 -8 10 -11 10 -2 0
-4 -4 -4 -10z"/>
<path d="M2695 1610 c-3 -5 -2 -10 4 -10 5 0 13 5 16 10 3 6 2 10 -4 10 -5 0
-13 -4 -16 -10z"/>
<path d="M2146 1581 c-10 -16 6 -41 26 -41 12 0 17 -4 12 -12 -5 -10 -4 -10 6
-1 18 17 4 63 -20 63 -10 0 -21 -4 -24 -9z"/>
<path d="M3055 1573 c2 -10 4 -20 5 -23 1 -3 2 -8 1 -12 -2 -15 17 -8 23 8 4
9 5 17 4 18 -2 1 -11 7 -20 14 -14 11 -16 10 -13 -5z"/>
<path d="M4661 1571 c13 -11 26 -17 28 -15 5 5 -30 33 -43 34 -4 0 2 -9 15
-19z"/>
<path d="M4402 1558 c8 -12 20 -24 27 -26 20 -7 -5 34 -25 42 -15 6 -15 4 -2
-16z"/>
<path d="M1998 1524 c-6 -6 2 -44 9 -44 2 0 13 5 24 11 16 8 18 13 8 25 -12
14 -31 18 -41 8z"/>
<path d="M4291 1521 c-8 -6 -9 -11 -3 -15 6 -3 14 -1 17 5 9 14 2 20 -14 10z"/>
<path d="M4450 1520 c0 -12 30 -34 51 -37 10 -2 19 0 19 5 -1 9 -70 42 -70 32z"/>
<path d="M4331 1507 c2 -1 13 -9 24 -17 19 -14 19 -14 6 3 -7 9 -18 17 -24 17
-6 0 -8 -1 -6 -3z"/>
<path d="M4390 1503 c1 -16 30 -46 37 -38 5 4 2 10 -4 12 -7 3 -13 11 -13 19
0 8 -4 14 -10 14 -5 0 -10 -3 -10 -7z"/>
<path d="M4696 1474 c-3 -8 1 -14 10 -14 15 0 27 -9 85 -62 10 -10 19 -14 19
-9 0 15 -40 60 -60 66 -11 4 -18 10 -15 15 3 4 -4 10 -14 13 -12 3 -22 -1 -25
-9z"/>
<path d="M3170 1448 c-11 -18 -20 -42 -20 -53 0 -16 3 -14 16 10 38 71 40 102
4 43z"/>
<path d="M4325 1460 c-3 -5 3 -10 15 -10 12 0 18 5 15 10 -3 6 -10 10 -15 10
-5 0 -12 -4 -15 -10z"/>
<path d="M2485 1440 c3 -5 8 -10 11 -10 2 0 4 5 4 10 0 6 -5 10 -11 10 -5 0
-7 -4 -4 -10z"/>
<path d="M2650 1429 c0 -11 5 -17 10 -14 6 3 10 13 10 21 0 8 -4 14 -10 14 -5
0 -10 -9 -10 -21z"/>
<path d="M3290 1424 c0 -13 -69 -39 -92 -35 -22 3 -23 -12 -3 -29 13 -11 18
-10 28 2 7 9 24 18 38 22 25 5 46 33 34 44 -3 3 -5 1 -5 -4z"/>
<path d="M4457 1403 c-13 -12 -7 -22 16 -28 12 -4 36 -14 53 -22 31 -16 64
-13 64 6 0 5 -8 12 -17 15 -10 3 -29 13 -43 21 -26 15 -62 20 -73 8z"/>
<path d="M4670 1396 c0 -9 7 -19 15 -23 25 -9 27 2 5 22 -18 17 -20 17 -20 1z"/>
<path d="M4230 1369 c0 -11 4 -18 10 -14 5 3 7 12 3 20 -7 21 -13 19 -13 -6z"/>
<path d="M4763 1370 c14 -11 29 -20 34 -20 11 1 -37 40 -49 40 -6 0 1 -9 15
-20z"/>
<path d="M3361 1364 c0 -11 3 -14 6 -6 3 7 2 16 -1 19 -3 4 -6 -2 -5 -13z"/>
<path d="M2653 1355 c-9 -25 4 -29 17 -6 7 15 7 21 0 21 -6 0 -13 -7 -17 -15z"/>
<path d="M3025 1360 c-3 -5 -1 -10 4 -10 6 0 11 5 11 10 0 6 -2 10 -4 10 -3 0
-8 -4 -11 -10z"/>
<path d="M3115 1335 c-9 -20 -14 -39 -12 -42 3 -2 13 12 22 32 10 19 15 38 13
41 -3 2 -13 -12 -23 -31z"/>
<path d="M2737 1353 c-4 -3 -7 -11 -7 -17 0 -6 5 -5 12 2 6 6 9 14 7 17 -3 3
-9 2 -12 -2z"/>
<path d="M3151 1324 c0 -11 3 -14 6 -6 3 7 2 16 -1 19 -3 4 -6 -2 -5 -13z"/>
<path d="M1884 1315 c-10 -25 3 -44 25 -38 23 6 27 23 9 41 -16 16 -27 15 -34
-3z"/>
<path d="M4335 1320 c-3 -5 -1 -10 4 -10 6 0 11 5 11 10 0 6 -2 10 -4 10 -3 0
-8 -4 -11 -10z"/>
<path d="M4007 1306 c-4 -10 -1 -13 8 -9 8 3 12 9 9 14 -7 12 -11 11 -17 -5z"/>
<path d="M4230 1315 c-1 -5 -3 -18 -5 -27 -2 -10 1 -18 5 -18 16 0 21 20 11
37 -6 10 -11 14 -11 8z"/>
<path d="M3510 1301 c0 -13 28 -33 41 -29 6 2 0 12 -15 21 -14 10 -26 13 -26
8z"/>
<path d="M4115 1290 c-3 -5 1 -10 10 -10 9 0 13 5 10 10 -3 6 -8 10 -10 10 -2
0 -7 -4 -10 -10z"/>
<path d="M4411 1297 c2 -1 13 -9 24 -17 19 -14 19 -14 6 3 -7 9 -18 17 -24 17
-6 0 -8 -1 -6 -3z"/>
<path d="M4553 1284 c3 -4 17 -8 31 -9 36 -4 69 -16 86 -30 8 -8 28 -17 44
-21 50 -12 25 19 -35 43 -49 20 -142 32 -126 17z"/>
<path d="M3110 1269 c0 -5 5 -7 10 -4 6 3 10 8 10 11 0 2 -4 4 -10 4 -5 0 -10
-5 -10 -11z"/>
<path d="M3370 1264 c0 -8 5 -12 10 -9 6 3 10 10 10 16 0 5 -4 9 -10 9 -5 0
-10 -7 -10 -16z"/>
<path d="M3976 1271 c-4 -7 -5 -15 -2 -18 9 -9 19 4 14 18 -4 11 -6 11 -12 0z"/>
<path d="M4115 1262 c-13 -8 -17 -52 -6 -52 12 0 41 47 34 54 -8 8 -16 7 -28
-2z"/>
<path d="M3145 1230 c-8 -16 -15 -39 -15 -52 0 -18 4 -15 19 15 27 54 32 67
21 67 -5 0 -16 -13 -25 -30z"/>
<path d="M4400 1250 c0 -5 7 -10 15 -10 8 0 15 5 15 10 0 6 -7 10 -15 10 -8 0
-15 -4 -15 -10z"/>
<path d="M4475 1250 c-15 -5 -20 -16 -19 -36 1 -16 3 -35 3 -42 1 -17 89 -55
121 -53 14 1 40 1 58 1 19 0 38 3 43 6 11 6 -57 64 -75 64 -6 0 -21 16 -34 35
-23 36 -52 44 -97 25z"/>
<path d="M2410 1230 c0 -5 5 -10 11 -10 5 0 7 5 4 10 -3 6 -8 10 -11 10 -2 0
-4 -4 -4 -10z"/>
<path d="M2586 1225 c-7 -20 9 -28 23 -11 9 10 8 15 -3 19 -8 3 -17 -1 -20 -8z"/>
<path d="M2918 1204 c-8 -8 1 -57 13 -68 5 -6 9 1 9 20 0 31 -13 58 -22 48z"/>
<path d="M3082 1190 c-6 -11 -8 -21 -3 -25 5 -3 13 4 16 16 9 28 2 33 -13 9z"/>
<path d="M3420 1185 c0 -8 5 -15 10 -15 6 0 10 7 10 15 0 8 -4 15 -10 15 -5 0
-10 -7 -10 -15z"/>
<path d="M4075 1190 c-3 -5 -1 -10 4 -10 6 0 11 5 11 10 0 6 -2 10 -4 10 -3 0
-8 -4 -11 -10z"/>
<path d="M4770 1182 c0 -10 21 -32 32 -32 16 0 8 19 -12 30 -11 6 -20 7 -20 2z"/>
<path d="M3370 1176 c0 -2 7 -7 16 -10 8 -3 12 -2 9 4 -6 10 -25 14 -25 6z"/>
<path d="M3167 1163 c-9 -8 25 -33 36 -26 4 3 3 11 -4 19 -13 15 -22 18 -32 7z"/>
<path d="M4416 1158 c3 -4 9 -8 15 -8 5 0 9 4 9 8 0 5 -7 9 -15 9 -8 0 -12 -4
-9 -9z"/>
<path d="M3355 1150 c-3 -5 -1 -10 4 -10 6 0 11 5 11 10 0 6 -2 10 -4 10 -3 0
-8 -4 -11 -10z"/>
<path d="M2587 1130 c-3 -11 -2 -20 2 -20 3 0 12 9 19 20 10 16 10 20 -2 20
-7 0 -16 -9 -19 -20z"/>
<path d="M3096 1128 c-13 -18 -18 -20 -25 -9 -6 9 -11 10 -15 2 -9 -14 2 -33
15 -26 5 4 9 2 9 -4 0 -5 -4 -13 -10 -16 -5 -3 -10 -11 -10 -16 0 -16 25 13
44 50 21 39 15 52 -8 19z"/>
<path d="M2676 1125 c-3 -8 -1 -15 4 -15 6 0 10 7 10 15 0 8 -2 15 -4 15 -2 0
-6 -7 -10 -15z"/>
<path d="M4809 1118 c23 -27 42 -29 40 -5 0 8 -2 8 -6 -1 -4 -10 -12 -8 -32
10 l-26 23 24 -27z"/>
<path d="M3449 1112 c6 -11 19 -22 30 -25 16 -4 18 -1 12 17 -5 11 -18 22 -30
24 -20 3 -21 1 -12 -16z"/>
<path d="M4020 1111 c0 -6 4 -13 10 -16 6 -3 7 1 4 9 -7 18 -14 21 -14 7z"/>
<path d="M4410 1089 c0 -5 5 -7 10 -4 6 3 10 8 10 11 0 2 -4 4 -10 4 -5 0 -10
-5 -10 -11z"/>
<path d="M3520 1070 c6 -11 15 -20 20 -20 4 0 17 -3 27 -6 10 -3 6 3 -9 12
-16 10 -28 22 -28 26 0 5 -5 8 -10 8 -7 0 -7 -6 0 -20z"/>
<path d="M4055 1080 c-3 -5 1 -10 9 -10 9 0 16 5 16 10 0 6 -4 10 -9 10 -6 0
-13 -4 -16 -10z"/>
<path d="M3169 1059 c5 -15 7 -30 3 -35 -4 -4 -1 -4 6 0 16 9 15 18 -3 42 -14
18 -15 17 -6 -7z"/>
<path d="M3282 1050 c0 -16 3 -32 8 -35 5 -3 7 8 5 26 -5 42 -12 46 -13 9z"/>
<path d="M4655 1060 c4 -6 14 -10 23 -8 10 2 49 -13 89 -34 43 -23 74 -34 78
-28 10 17 -3 28 -63 50 -68 26 -137 36 -127 20z"/>
<path d="M3085 1040 c3 -5 8 -10 11 -10 2 0 4 5 4 10 0 6 -5 10 -11 10 -5 0
-7 -4 -4 -10z"/>
<path d="M3115 1030 c-3 -5 -1 -10 4 -10 6 0 11 5 11 10 0 6 -2 10 -4 10 -3 0
-8 -4 -11 -10z"/>
<path d="M4164 1028 c-11 -18 -12 -48 -2 -48 14 0 49 40 43 50 -9 14 -32 12
-41 -2z"/>
<path d="M4580 1026 c-33 -10 -35 -13 -35 -56 0 -44 0 -45 55 -71 30 -14 62
-25 70 -23 8 1 21 3 28 3 7 1 11 5 7 10 -3 5 -1 12 4 16 6 3 -1 21 -14 42 -14
20 -25 42 -25 49 0 7 -12 20 -27 28 -22 11 -35 11 -63 2z"/>
<path d="M3054 973 c-9 -32 -21 -68 -27 -80 -5 -12 -7 -33 -5 -48 3 -14 1 -28
-3 -31 -5 -3 -9 -10 -9 -15 0 -6 7 -3 16 5 8 9 12 21 9 26 -4 6 -1 17 5 25 6
8 9 19 5 24 -3 6 1 25 9 43 14 32 29 108 21 108 -2 0 -12 -26 -21 -57z"/>
<path d="M4230 980 c0 -5 5 -10 10 -10 6 0 10 -6 10 -13 0 -19 20 -36 36 -30
20 8 17 41 -5 53 -25 13 -51 13 -51 0z"/>
<path d="M2876 972 c-7 -12 3 -65 15 -77 7 -7 9 4 6 33 -4 45 -11 59 -21 44z"/>
<path d="M3420 950 c0 -11 5 -20 10 -20 6 0 10 9 10 20 0 11 -4 20 -10 20 -5
0 -10 -9 -10 -20z"/>
<path d="M4490 926 c0 -2 7 -6 15 -10 8 -3 15 -1 15 4 0 6 -7 10 -15 10 -8 0
-15 -2 -15 -4z"/>
<path d="M5670 915 c0 -15 38 -40 47 -31 7 7 -26 46 -39 46 -4 0 -8 -7 -8 -15z"/>
<path d="M4910 896 c0 -11 30 -39 36 -34 2 3 -5 13 -16 23 -11 10 -20 15 -20
11z"/>
<path d="M5770 877 c0 -2 16 -22 36 -43 31 -33 33 -34 16 -8 -21 30 -52 61
-52 51z"/>
<path d="M3148 804 c3 -15 8 -22 14 -16 9 9 1 42 -12 42 -4 0 -5 -12 -2 -26z"/>
<path d="M3272 825 c4 -4 3 -14 -3 -22 -7 -8 -8 -13 -1 -13 15 0 23 28 9 36
-7 4 -9 4 -5 -1z"/>
<path d="M4580 801 c0 -6 4 -13 10 -16 6 -3 7 1 4 9 -7 18 -14 21 -14 7z"/>
<path d="M3091 784 c0 -11 3 -14 6 -6 3 7 2 16 -1 19 -3 4 -6 -2 -5 -13z"/>
<path d="M3022 719 c-23 -80 -41 -182 -22 -124 6 17 12 41 15 53 2 13 11 46
20 73 9 27 15 54 13 61 -2 6 -14 -22 -26 -63z"/>
<path d="M4250 781 c0 -5 5 -13 10 -16 6 -3 10 -2 10 4 0 5 -4 13 -10 16 -5 3
-10 2 -10 -4z"/>
<path d="M3330 766 c0 -9 5 -16 10 -16 6 0 10 4 10 9 0 6 -4 13 -10 16 -5 3
-10 -1 -10 -9z"/>
<path d="M3003 755 c-3 -9 -3 -18 -1 -21 3 -3 8 4 11 16 6 23 -1 27 -10 5z"/>
<path d="M4901 761 c-20 -13 -7 -53 31 -90 17 -17 35 -31 38 -31 4 0 12 -11
20 -24 7 -13 21 -27 32 -29 15 -4 18 -2 12 16 -3 12 -13 29 -20 38 -8 8 -14
22 -14 29 0 14 -46 79 -64 92 -14 10 -18 10 -35 -1z"/>
<path d="M3182 745 c4 -4 3 -14 -3 -21 -6 -7 -6 -15 -1 -18 6 -3 12 3 15 14 3
11 0 23 -6 27 -7 3 -9 3 -5 -2z"/>
<path d="M3495 730 c-3 -5 -1 -10 4 -10 6 0 11 5 11 10 0 6 -2 10 -4 10 -3 0
-8 -4 -11 -10z"/>
<path d="M5040 714 c0 -28 19 -52 65 -83 52 -35 66 -26 35 24 -37 60 -100 97
-100 59z"/>
<path d="M3911 704 c0 -11 3 -14 6 -6 3 7 2 16 -1 19 -3 4 -6 -2 -5 -13z"/>
<path d="M3840 693 c0 -13 5 -23 10 -23 13 0 13 11 0 30 -8 12 -10 11 -10 -7z"/>
<path d="M4832 678 c-30 -37 -1 -101 74 -166 30 -25 54 -52 54 -59 0 -7 9 -17
19 -23 16 -8 22 -6 30 7 6 10 11 14 11 8 0 -13 127 -145 140 -145 16 0 12 25
-8 51 -11 13 -22 36 -25 51 -8 32 -68 98 -89 98 -8 0 -20 -10 -25 -22 -10 -22
-11 -22 -26 12 -8 19 -26 62 -39 95 -17 42 -34 67 -57 82 -39 27 -45 27 -59
11z"/>
<path d="M3234 645 c-9 -50 0 -53 13 -5 5 22 7 40 2 40 -4 0 -11 -16 -15 -35z"/>
<path d="M5850 661 c0 -11 39 -41 52 -41 14 0 8 23 -9 36 -21 16 -43 18 -43 5z"/>
<path d="M3471 624 c0 -11 3 -14 6 -6 3 7 2 16 -1 19 -3 4 -6 -2 -5 -13z"/>
<path d="M4560 620 c0 -5 5 -10 11 -10 5 0 7 5 4 10 -3 6 -8 10 -11 10 -2 0
-4 -4 -4 -10z"/>
<path d="M5991 583 c19 -23 36 -39 38 -37 3 3 -12 21 -34 42 l-38 37 34 -42z"/>
<path d="M3730 574 c-17 -49 -7 -53 13 -4 8 22 12 40 7 40 -5 0 -14 -16 -20
-36z"/>
<path d="M3467 587 c-3 -8 -2 -20 3 -26 5 -9 8 -4 8 13 0 29 -3 32 -11 13z"/>
<path d="M3987 561 c3 -12 9 -21 13 -21 12 0 5 33 -8 38 -6 2 -8 -5 -5 -17z"/>
<path d="M2976 535 c-3 -8 -1 -15 4 -15 6 0 10 7 10 15 0 8 -2 15 -4 15 -2 0
-6 -7 -10 -15z"/>
<path d="M4670 541 c0 -5 5 -13 10 -16 6 -3 10 -2 10 4 0 5 -4 13 -10 16 -5 3
-10 2 -10 -4z"/>
<path d="M3202 490 c0 -19 2 -27 5 -17 2 9 2 25 0 35 -3 9 -5 1 -5 -18z"/>
<path d="M4100 514 c0 -6 7 -19 16 -30 14 -18 14 -18 3 6 -14 31 -19 36 -19
24z"/>
<path d="M3320 495 c0 -16 16 -20 24 -6 3 5 -1 11 -9 15 -9 3 -15 0 -15 -9z"/>
<path d="M2967 481 c-4 -17 -3 -21 5 -13 5 5 8 16 6 23 -3 8 -7 3 -11 -10z"/>
<path d="M6075 470 c-3 -5 -1 -10 4 -10 6 0 11 5 11 10 0 6 -2 10 -4 10 -3 0
-8 -4 -11 -10z"/>
<path d="M5176 444 c-6 -16 19 -74 33 -74 4 0 25 -11 46 -25 20 -15 40 -24 42
-21 13 12 -9 55 -48 94 -45 45 -63 52 -73 26z"/>
<path d="M3230 410 c-3 -9 -8 -34 -14 -70 l-6 -35 15 40 c9 22 14 46 11 55 -2
8 -5 13 -6 10z"/>
<path d="M4942 398 c-17 -17 -15 -33 13 -87 14 -29 45 -65 73 -88 27 -21 55
-50 61 -65 15 -32 51 -39 51 -9 0 10 -6 24 -14 30 -8 7 -24 44 -36 84 -32 105
-108 175 -148 135z"/>
<path d="M3755 380 c3 -5 8 -10 11 -10 2 0 4 5 4 10 0 6 -5 10 -11 10 -5 0 -7
-4 -4 -10z"/>
<path d="M3470 340 c0 -5 5 -10 10 -10 6 0 10 5 10 10 0 6 -4 10 -10 10 -5 0
-10 -4 -10 -10z"/>
<path d="M4655 340 c3 -5 11 -10 16 -10 6 0 7 5 4 10 -3 6 -11 10 -16 10 -6 0
-7 -4 -4 -10z"/>
<path d="M3759 323 c-1 -5 -3 -21 -5 -38 -2 -25 -1 -27 7 -12 6 10 8 21 5 24
-3 4 -1 12 5 20 9 9 8 13 0 13 -6 0 -12 -3 -12 -7z"/>
<path d="M3470 284 c0 -14 4 -23 9 -20 5 3 7 15 4 26 -7 28 -13 25 -13 -6z"/>
<path d="M4660 281 c0 -5 5 -13 10 -16 6 -3 10 -2 10 4 0 5 -4 13 -10 16 -5 3
-10 2 -10 -4z"/>
<path d="M4236 265 c4 -8 8 -15 10 -15 2 0 4 7 4 15 0 8 -4 15 -10 15 -5 0 -7
-7 -4 -15z"/>
<path d="M4162 213 c17 -41 30 -53 17 -15 -6 18 -15 35 -20 38 -5 3 -4 -7 3
-23z"/>
<path d="M3186 215 c-3 -9 -6 -26 -5 -38 1 -14 4 -9 9 13 9 37 7 52 -4 25z"/>
<path d="M3546 165 c9 -38 12 -42 20 -21 4 11 0 24 -10 34 -16 16 -17 15 -10
-13z"/>
<path d="M4791 169 c-1 -9 7 -23 17 -30 15 -12 16 -12 6 1 -6 8 -14 22 -17 30
-5 13 -6 12 -6 -1z"/>
<path d="M3505 80 c-3 -5 -1 -10 4 -10 6 0 11 5 11 10 0 6 -2 10 -4 10 -3 0
-8 -4 -11 -10z"/>
<path d="M3780 80 c0 -5 5 -10 11 -10 5 0 7 5 4 10 -3 6 -8 10 -11 10 -2 0 -4
-4 -4 -10z"/>
<path d="M5065 50 c3 -5 8 -10 11 -10 2 0 4 5 4 10 0 6 -5 10 -11 10 -5 0 -7
-4 -4 -10z"/>
<path d="M3790 20 c0 -5 5 -10 11 -10 5 0 7 5 4 10 -3 6 -8 10 -11 10 -2 0 -4
-4 -4 -10z"/>
</g>
</svg>
